<svg width="249" height="75" viewBox="0 0 249 75" fill="none" xmlns="http://www.w3.org/2000/svg">
<g clip-path="url(#clip0_12_21)">
<path d="M154.124 58.5923C139.701 69.2231 118.796 74.895 100.797 74.895C75.5594 74.895 52.8394 65.5607 35.6508 50.0358C34.3003 48.815 35.5103 47.1513 37.1309 48.102C55.6807 58.8948 78.6169 65.3878 102.309 65.3878C118.288 65.3878 135.865 62.0819 152.028 55.2216C154.469 54.1844 156.511 56.8205 154.124 58.5923Z" fill="#FF9900"/>
<path d="M160.12 51.732C158.283 49.3768 147.933 50.6193 143.287 51.1703C141.872 51.3431 141.656 50.1115 142.931 49.2256C151.174 43.424 164.7 45.0986 166.278 47.0433C167.855 48.9987 165.867 62.5573 158.121 69.0287C156.932 70.0226 155.798 69.4932 156.327 68.1752C158.067 63.8321 161.967 54.098 160.12 51.732Z" fill="#FF9900"/>
<path d="M143.612 8.26895V2.62945C143.612 1.77596 144.26 1.20337 145.038 1.20337H170.286C171.096 1.20337 171.744 1.78677 171.744 2.62945V7.45868C171.733 8.26895 171.053 9.32771 169.843 11.0023L156.76 29.6818C161.621 29.5629 166.753 30.2868 171.161 32.7716C172.155 33.3334 172.425 34.1545 172.501 34.9648V40.9824C172.501 41.8035 171.593 42.765 170.642 42.268C162.874 38.195 152.557 37.7521 143.968 42.3112C143.093 42.7866 142.175 41.8359 142.175 41.0148V35.2997C142.175 34.3814 142.185 32.8148 143.104 31.4212L158.261 9.68423H145.07C144.26 9.68423 143.612 9.11164 143.612 8.26895Z" fill="#221F1F"/>
<path d="M51.5105 43.4564H43.8291C43.0945 43.4024 42.5111 42.8514 42.4571 42.1492V2.72669C42.4571 1.93802 43.1161 1.3114 43.9372 1.3114H51.1C51.8454 1.34379 52.4396 1.91641 52.4937 2.62945V7.78279H52.6341C54.5031 2.80231 58.0143 0.479523 62.7463 0.479523C67.5539 0.479523 70.5573 2.80231 72.7181 7.78279C74.5763 2.80231 78.8005 0.479523 83.3272 0.479523C86.5467 0.479523 90.0687 1.80837 92.2186 4.79018C94.6495 8.10689 94.1525 12.9253 94.1525 17.1496L94.1417 42.0303C94.1417 42.819 93.4827 43.4564 92.6616 43.4564H84.991C84.224 43.4024 83.6081 42.7866 83.6081 42.0303V21.1361C83.6081 19.4723 83.7594 15.3237 83.3921 13.7464C82.8195 11.0995 81.1017 10.3541 78.8761 10.3541C77.0179 10.3541 75.0733 11.5965 74.2846 13.5843C73.4959 15.5722 73.5716 18.8997 73.5716 21.1361V42.0303C73.5716 42.819 72.9125 43.4564 72.0915 43.4564H64.4209C63.643 43.4024 63.038 42.7866 63.038 42.0303L63.0272 21.1361C63.0272 16.739 63.751 10.2676 58.2952 10.2676C52.7745 10.2676 52.9906 16.5769 52.9906 21.1361V42.0303C52.9906 42.819 52.3316 43.4564 51.5105 43.4564Z" fill="#221F1F"/>
<path d="M193.481 0.479523C204.879 0.479523 211.048 10.2676 211.048 22.7134C211.048 34.7379 204.231 44.2775 193.481 44.2775C182.289 44.2775 176.195 34.4894 176.195 22.2921C176.195 10.0191 182.364 0.479523 193.481 0.479523ZM193.546 8.52824C187.885 8.52824 187.528 16.242 187.528 21.0497C187.528 25.8681 187.453 36.1532 193.481 36.1532C199.434 36.1532 199.715 27.856 199.715 22.7998C199.715 19.4723 199.574 15.4966 198.57 12.3419C197.705 9.5978 195.988 8.52824 193.546 8.52824Z" fill="#221F1F"/>
<path d="M225.827 43.4564H218.178C217.411 43.4024 216.795 42.7866 216.795 42.0303L216.785 2.59704C216.849 1.87319 217.487 1.3114 218.265 1.3114H225.384C226.054 1.34379 226.605 1.79757 226.756 2.41338V8.44181H226.897C229.047 3.05079 232.061 0.479523 237.366 0.479523C240.812 0.479523 244.172 1.72194 246.333 5.12509C248.342 8.27975 248.342 13.5843 248.342 17.398V42.214C248.256 42.9054 247.618 43.4564 246.862 43.4564H239.159C238.457 43.4024 237.873 42.8838 237.798 42.214V20.8012C237.798 16.4905 238.295 10.1812 232.99 10.1812C231.121 10.1812 229.403 11.4344 228.55 13.3359C227.469 15.7451 227.329 18.1435 227.329 20.8012V42.0303C227.318 42.819 226.648 43.4564 225.827 43.4564Z" fill="#221F1F"/>
<path d="M123.484 24.6257V22.9619C117.931 22.9619 112.065 24.1503 112.065 30.6973C112.065 34.014 113.783 36.2612 116.732 36.2612C118.893 36.2612 120.827 34.9323 122.047 32.7716C123.56 30.1139 123.484 27.6183 123.484 24.6257ZM131.231 43.3484C130.723 43.8021 129.988 43.8345 129.416 43.532C126.866 41.4145 126.412 40.4314 125.008 38.4111C120.794 42.711 117.812 43.9966 112.346 43.9966C105.885 43.9966 100.851 40.01 100.851 32.0262C100.851 25.7925 104.232 21.5466 109.04 19.4723C113.21 17.6357 119.033 17.3116 123.484 16.8038V15.8099C123.484 13.9841 123.625 11.8233 122.555 10.246C121.615 8.83072 119.822 8.24733 118.245 8.24733C115.317 8.24733 112.702 9.74903 112.065 12.8605C111.935 13.5519 111.428 14.2325 110.736 14.265L103.282 13.4655C102.655 13.325 101.964 12.8173 102.136 11.8558C103.854 2.8239 112.011 0.101379 119.314 0.101379C123.052 0.101379 127.935 1.09531 130.885 3.92587C134.623 7.41545 134.266 12.0718 134.266 17.1387V29.1092C134.266 32.7068 135.757 34.2841 137.162 36.2288C137.659 36.9202 137.767 37.7521 137.14 38.2707C135.574 39.5779 132.786 42.0087 131.252 43.37L131.231 43.3484Z" fill="#221F1F"/>
<path d="M22.7836 24.6257V22.9619C17.2305 22.9619 11.3641 24.1503 11.3641 30.6973C11.3641 34.014 13.0819 36.2612 16.0313 36.2612C18.192 36.2612 20.1259 34.9323 21.3467 32.7716C22.8592 30.1139 22.7836 27.6183 22.7836 24.6257ZM30.5298 43.3484C30.022 43.8021 29.2874 43.8345 28.7148 43.532C26.1651 41.4145 25.7114 40.4314 24.3069 38.4111C20.0935 42.711 17.1117 43.9966 11.645 43.9966C5.18445 43.9966 0.149963 40.01 0.149963 32.0262C0.149963 25.7925 3.5315 21.5466 8.33912 19.4723C12.5093 17.6357 18.3325 17.3116 22.7836 16.8038V15.8099C22.7836 13.9841 22.924 11.8233 21.8545 10.246C20.9146 8.83072 19.1212 8.24733 17.5438 8.24733C14.616 8.24733 12.0016 9.74903 11.3641 12.8605C11.2345 13.5519 10.7267 14.2325 10.0353 14.265L2.58078 13.4655C1.95417 13.325 1.26274 12.8173 1.4356 11.8558C3.15338 2.8239 11.3101 0.101379 18.6134 0.101379C22.3514 0.101379 27.2347 1.09531 30.1841 3.92587C33.9222 7.41545 33.5656 12.0718 33.5656 17.1387V29.1092C33.5656 32.7068 35.0565 34.2841 36.461 36.2288C36.958 36.9202 37.066 37.7521 36.4394 38.2707C34.8729 39.5779 32.0855 42.0087 30.5514 43.37L30.5298 43.3484Z" fill="#221F1F"/>
</g>
<defs>
<clipPath id="clip0_12_21">
<rect width="248.489" height="75" fill="white"/>
</clipPath>
</defs>
</svg>
