<svg width="420" height="275" viewBox="0 0 420 275" fill="none" xmlns="http://www.w3.org/2000/svg">
<g clip-path="url(#clip0_1_9)">
<path d="M227.624 275V6.03932H110.121C81.8894 6.03932 60.0165 12.2706 44.502 24.7331C28.9875 36.9412 21.2302 53.9817 21.2302 75.8547C21.2302 92.1322 25.9354 105.866 35.3459 117.057C44.7563 128.248 57.6003 135.751 73.8778 139.566V133.843C61.4154 135.624 50.7332 139.439 41.8315 145.288C32.9297 151.138 26.1898 158.641 21.6117 167.797C16.7793 176.953 14.3631 187.635 14.3631 199.844C14.3631 215.612 18.051 229.219 25.4268 240.665C32.5482 251.855 42.976 260.376 56.7101 266.225C70.4443 272.075 86.849 275 105.924 275H227.624ZM180.699 237.994H112.028C105.161 237.994 99.0571 237.485 93.7161 236.468C88.1207 235.451 83.4155 233.925 79.6004 231.89C75.531 229.601 72.2246 226.803 69.6813 223.497C66.8836 220.191 64.8489 216.375 63.5772 212.052C62.3055 207.728 61.6697 202.896 61.6697 197.555C61.6697 191.959 62.3055 187 63.5772 182.676C64.8489 178.352 66.8836 174.664 69.6813 171.612C72.2246 168.306 75.531 165.635 79.6004 163.601C83.4155 161.312 88.1207 159.658 93.7161 158.641C99.0571 157.624 105.161 157.115 112.028 157.115H180.699V237.994ZM180.699 120.109H118.514C101.728 120.109 89.2652 116.93 81.1264 110.572C72.7333 103.959 68.5368 94.294 68.5368 81.5772C68.5368 68.8604 72.7333 59.3228 81.1264 52.9644C89.2652 46.3516 101.728 43.0453 118.514 43.0453H180.699V120.109Z" fill="url(#paint0_linear_1_9)"/>
<path d="M227.236 275V6.03932H406.162V44.9528H274.161V118.965H397.769V157.878H274.161V236.087H406.162V275H227.236Z" fill="url(#paint1_linear_1_9)"/>
</g>
<defs>
<linearGradient id="paint0_linear_1_9" x1="126" y1="193" x2="121.922" y2="335.609" gradientUnits="userSpaceOnUse">
<stop stop-color="#2563EB"/>
<stop offset="1" stop-color="#172A54"/>
</linearGradient>
<linearGradient id="paint1_linear_1_9" x1="312" y1="210" x2="315.533" y2="335.608" gradientUnits="userSpaceOnUse">
<stop stop-color="#2563EB"/>
<stop offset="0.0001" stop-color="#2563EB"/>
<stop offset="1" stop-color="#172A54"/>
</linearGradient>
<clipPath id="clip0_1_9">
<rect width="420" height="275" fill="white"/>
</clipPath>
</defs>
</svg>
