<svg width="706" height="135" viewBox="0 0 706 135" fill="none" xmlns="http://www.w3.org/2000/svg">
<g clip-path="url(#clip0_2_26)">
<path d="M87.0722 119V18.9464H43.3608C32.8587 18.9464 24.7219 21.2644 18.9505 25.9004C13.1791 30.4419 10.2934 36.781 10.2934 44.9177C10.2934 50.973 12.0438 56.0821 15.5445 60.2451C19.0451 64.4081 23.8231 67.1992 29.8784 68.6184V66.4896C25.2423 67.1519 21.2686 68.5711 17.9571 70.7472C14.6456 72.9233 12.1384 75.7144 10.4353 79.1205C8.63767 82.5265 7.73885 86.5003 7.73885 91.0417C7.73885 96.9078 9.11074 101.97 11.8545 106.227C14.5037 110.39 18.3828 113.56 23.492 115.736C28.6011 117.912 34.7037 119 41.7997 119H87.0722ZM69.616 105.234H44.0704C41.5158 105.234 39.2451 105.045 37.2582 104.666C35.1767 104.288 33.4264 103.72 32.0072 102.963C30.4934 102.112 29.2634 101.071 28.3173 99.8408C27.2765 98.6108 26.5196 97.1916 26.0465 95.5832C25.5735 93.9748 25.3369 92.1771 25.3369 90.1902C25.3369 88.1087 25.5735 86.2638 26.0465 84.6553C26.5196 83.0469 27.2765 81.675 28.3173 80.5397C29.2634 79.3097 30.4934 78.3163 32.0072 77.5593C33.4264 76.7078 35.1767 76.0928 37.2582 75.7144C39.2451 75.3359 41.5158 75.1467 44.0704 75.1467H69.616V105.234ZM69.616 61.3805H46.483C40.2385 61.3805 35.6025 60.1978 32.5749 57.8325C29.4526 55.3725 27.8915 51.7772 27.8915 47.0465C27.8915 42.3159 29.4526 38.7679 32.5749 36.4025C35.6025 33.9426 40.2385 32.7126 46.483 32.7126H69.616V61.3805Z" fill="url(#paint0_linear_2_26)"/>
<path d="M86.9278 119V18.9464H153.488V33.4222H104.384V60.9547H150.366V75.4305H104.384V104.524H153.488V119H86.9278ZM160.539 119V18.9464H175.724L213.475 88.6291H208.934L246.542 18.9464H261.444V119H244.981V45.9112H248.104L216.313 103.815H205.669L173.596 45.7693H177.002V119H160.539ZM272.111 119V18.9464H315.539C322.919 18.9464 329.163 20.1763 334.272 22.6363C339.381 25.0962 343.261 28.6442 345.91 33.2803C348.559 37.9163 349.884 43.5458 349.884 50.1688C349.884 56.6971 348.559 62.3266 345.91 67.0573C343.261 71.6933 339.381 75.2886 334.272 77.8432C329.163 80.3031 322.919 81.5331 315.539 81.5331H290.277V119H272.111ZM290.277 67.1992H312.7C319.134 67.1992 324.007 65.78 327.318 62.9416C330.63 60.0086 332.285 55.751 332.285 50.1688C332.285 44.5866 330.63 40.3763 327.318 37.5379C324.007 34.6995 319.134 33.2803 312.7 33.2803H290.277V67.1992ZM353.338 119V18.9464H396.766C407.741 18.9464 416.209 21.5955 422.17 26.8939C428.13 32.0976 431.111 39.4302 431.111 48.8915C431.111 55.0414 429.739 60.3397 426.995 64.7865C424.346 69.2334 420.467 72.6395 415.357 75.0048C410.248 77.3701 404.051 78.5528 396.766 78.5528L398.043 76.424H402.727C406.606 76.424 409.964 77.3701 412.803 79.2624C415.736 81.1547 418.29 84.135 420.467 88.2033L437.213 119H417.202L399.888 87.068C398.753 84.9865 397.476 83.3781 396.056 82.2427C394.637 81.0127 393.029 80.1612 391.231 79.6881C389.433 79.2151 387.352 78.9785 384.987 78.9785H371.504V119H353.338ZM371.504 65.4961H393.644C400.172 65.4961 405.092 64.1716 408.403 61.5224C411.809 58.7786 413.512 54.7102 413.512 49.3173C413.512 44.0189 411.809 40.0451 408.403 37.396C405.092 34.6522 400.172 33.2803 393.644 33.2803H371.504V65.4961ZM439.278 119V18.9464H505.838V33.4222H456.734V60.9547H502.716V75.4305H456.734V104.524H505.838V119H439.278ZM560.577 120.419C549.507 120.419 540.141 118.338 532.477 114.175C524.908 110.012 519.136 104.098 515.163 96.4347C511.189 88.771 509.202 79.6881 509.202 69.1861C509.202 58.5894 511.236 49.4592 515.305 41.7955C519.373 34.0372 525.239 28.0766 532.903 23.9136C540.566 19.656 549.744 17.5272 560.435 17.5272C565.166 17.5272 569.66 18.0002 573.918 18.9464C578.27 19.7979 582.291 21.0752 585.981 22.7782C589.671 24.4812 592.84 26.5627 595.489 29.0227L589.387 43.2147C584.94 39.714 580.399 37.2067 575.763 35.6929C571.127 34.1791 566.017 33.4222 560.435 33.4222C549.839 33.4222 541.796 36.4971 536.309 42.647C530.916 48.7969 528.219 57.6432 528.219 69.1861C528.219 80.8235 531.01 89.6699 536.593 95.7251C542.175 101.78 550.454 104.808 561.429 104.808C565.213 104.808 569.045 104.43 572.924 103.673C576.803 102.916 580.588 101.875 584.278 100.55L580.73 108.64V78.4109H557.739V64.9285H595.915V113.039C592.888 114.553 589.387 115.878 585.413 117.013C581.534 118.054 577.466 118.858 573.208 119.426C568.95 120.088 564.74 120.419 560.577 120.419ZM650.459 120.419C643.174 120.419 636.551 119.237 630.59 116.871C624.724 114.411 619.662 110.911 615.405 106.369C611.242 101.828 608.025 96.3874 605.754 90.0483C603.484 83.7092 602.348 76.6605 602.348 68.9022C602.348 61.0493 603.484 54.0006 605.754 47.7561C608.025 41.417 611.242 36.0241 615.405 31.5772C619.662 27.0358 624.724 23.5824 630.59 21.2171C636.551 18.7571 643.174 17.5272 650.459 17.5272C657.744 17.5272 664.32 18.7571 670.186 21.2171C676.147 23.5824 681.208 26.9885 685.371 31.4353C689.629 35.8822 692.893 41.2751 695.164 47.6142C697.435 53.8587 698.57 60.9074 698.57 68.7603C698.57 76.6132 697.435 83.7092 695.164 90.0483C692.893 96.3874 689.629 101.828 685.371 106.369C681.208 110.911 676.147 114.411 670.186 116.871C664.32 119.237 657.744 120.419 650.459 120.419ZM650.459 104.808C656.609 104.808 661.813 103.389 666.07 100.55C670.423 97.712 673.734 93.5963 676.005 88.2033C678.37 82.8104 679.553 76.3767 679.553 68.9022C679.553 61.3332 678.417 54.8994 676.147 49.6011C673.876 44.2081 670.564 40.1398 666.212 37.396C661.86 34.5576 656.609 33.1384 650.459 33.1384C644.404 33.1384 639.2 34.5576 634.848 37.396C630.496 40.1398 627.137 44.2081 624.772 49.6011C622.501 54.8994 621.365 61.3332 621.365 68.9022C621.365 76.3767 622.501 82.8104 624.772 88.2033C627.137 93.5963 630.496 97.712 634.848 100.55C639.2 103.389 644.404 104.808 650.459 104.808Z" fill="url(#paint1_linear_2_26)"/>
</g>
<defs>
<linearGradient id="paint0_linear_2_26" x1="49.0994" y1="45.5" x2="46.5857" y2="141.595" gradientUnits="userSpaceOnUse">
<stop stop-color="#2563EB"/>
<stop offset="1" stop-color="#172A54"/>
</linearGradient>
<linearGradient id="paint1_linear_2_26" x1="390.86" y1="45.5" x2="391.251" y2="141.659" gradientUnits="userSpaceOnUse">
<stop stop-color="#2563EB"/>
<stop offset="1" stop-color="#172A54"/>
</linearGradient>
<clipPath id="clip0_2_26">
<rect width="706" height="135" fill="white"/>
</clipPath>
</defs>
</svg>
