<svg width="420" height="420" viewBox="0 0 420 420" fill="none" xmlns="http://www.w3.org/2000/svg">
<g clip-path="url(#clip0_1_9)">
<path d="M227.624 336V67.0393H110.121C81.8894 67.0393 60.0165 73.2706 44.502 85.7331C28.9875 97.9412 21.2302 114.982 21.2302 136.855C21.2302 153.132 25.9354 166.866 35.3459 178.057C44.7563 189.248 57.6003 196.751 73.8778 200.566V194.843C61.4154 196.624 50.7332 200.439 41.8315 206.288C32.9297 212.138 26.1898 219.641 21.6117 228.797C16.7793 237.953 14.3631 248.635 14.3631 260.844C14.3631 276.612 18.051 290.219 25.4268 301.665C32.5482 312.855 42.976 321.376 56.7101 327.225C70.4443 333.075 86.849 336 105.924 336H227.624ZM180.699 298.994H112.028C105.161 298.994 99.0571 298.485 93.7161 297.468C88.1207 296.451 83.4155 294.925 79.6004 292.89C75.531 290.601 72.2246 287.803 69.6813 284.497C66.8836 281.191 64.8489 277.375 63.5772 273.052C62.3055 268.728 61.6697 263.896 61.6697 258.555C61.6697 252.959 62.3055 248 63.5772 243.676C64.8489 239.352 66.8836 235.664 69.6813 232.612C72.2246 229.306 75.531 226.635 79.6004 224.601C83.4155 222.312 88.1207 220.658 93.7161 219.641C99.0571 218.624 105.161 218.115 112.028 218.115H180.699V298.994ZM180.699 181.109H118.514C101.728 181.109 89.2652 177.93 81.1264 171.572C72.7333 164.959 68.5368 155.294 68.5368 142.577C68.5368 129.86 72.7333 120.323 81.1264 113.964C89.2652 107.352 101.728 104.045 118.514 104.045H180.699V181.109Z" fill="url(#paint0_linear_1_9)"/>
<path d="M227.236 336V67.0393H406.162V105.953H274.161V179.965H397.769V218.878H274.161V297.087H406.162V336H227.236Z" fill="url(#paint1_linear_1_9)"/>
</g>
<defs>
<linearGradient id="paint0_linear_1_9" x1="126" y1="254" x2="121.922" y2="396.609" gradientUnits="userSpaceOnUse">
<stop stop-color="#2563EB"/>
<stop offset="1" stop-color="#172A54"/>
</linearGradient>
<linearGradient id="paint1_linear_1_9" x1="312" y1="271" x2="315.533" y2="396.608" gradientUnits="userSpaceOnUse">
<stop stop-color="#2563EB"/>
<stop offset="0.0001" stop-color="#2563EB"/>
<stop offset="1" stop-color="#172A54"/>
</linearGradient>
<clipPath id="clip0_1_9">
<rect width="420" height="420" fill="white"/>
</clipPath>
</defs>
</svg>
