<svg width="332" height="75" viewBox="0 0 332 75" fill="none" xmlns="http://www.w3.org/2000/svg">
<g clip-path="url(#clip0_12_13)">
<path d="M68.9671 5.16888L47.7716 71.5329L2.24968 19.3495L68.9671 5.16888Z" fill="#6142AA"/>
<path d="M44.6834 27.4921L0.676552 19.2849L71.0558 3.50094L44.6834 27.4921Z" fill="url(#paint0_linear_12_13)"/>
<path d="M43.8696 27.806L48.403 72.6686L71.0558 3.5009L43.8696 27.806Z" fill="url(#paint1_linear_12_13)"/>
<path d="M44.3639 27.3641L48.4029 72.6686L0.676526 19.2848L44.3639 27.3641Z" fill="url(#paint2_linear_12_13)"/>
<path d="M89.3777 58.3857V13.4319H108.89C112.205 13.4319 115.011 13.9845 117.306 15.0898C119.602 16.195 121.345 17.7891 122.535 19.8721C123.725 21.955 124.321 24.4844 124.321 27.46C124.321 30.3932 123.725 32.9225 122.535 35.048C121.345 37.1309 119.602 38.7463 117.306 39.8941C115.011 40.9993 112.205 41.5519 108.89 41.5519H97.5395V58.3857H89.3777ZM97.5395 35.1117H107.614C110.505 35.1117 112.694 34.4741 114.182 33.1988C115.67 31.881 116.414 29.9681 116.414 27.46C116.414 24.952 115.67 23.0603 114.182 21.785C112.694 20.5097 110.505 19.8721 107.614 19.8721H97.5395V35.1117ZM130.974 58.3857V13.4319H150.486C155.417 13.4319 159.222 14.6222 161.9 17.0027C164.578 19.3407 165.917 22.6352 165.917 26.8862C165.917 29.6493 165.3 32.0298 164.068 34.0278C162.877 36.0257 161.134 37.556 158.839 38.6188C156.543 39.6815 153.759 40.2129 150.486 40.2129L151.06 39.2564H153.164C154.907 39.2564 156.416 39.6815 157.691 40.5317C159.009 41.3819 160.157 42.721 161.134 44.5489L168.659 58.3857H159.668L151.889 44.0387C151.378 43.1035 150.805 42.3809 150.167 41.8708C149.529 41.3181 148.807 40.9356 147.999 40.723C147.191 40.5105 146.256 40.4042 145.193 40.4042H139.136V58.3857H130.974ZM139.136 34.3466H149.083C152.016 34.3466 154.227 33.7514 155.714 32.5612C157.245 31.3284 158.01 29.5005 158.01 27.0774C158.01 24.6969 157.245 22.9115 155.714 21.7212C154.227 20.4885 152.016 19.8721 149.083 19.8721H139.136V34.3466ZM174.687 58.3857V13.4319H182.849V58.3857H174.687ZM208.116 59.0234C205.778 59.0234 203.525 58.8108 201.357 58.3857C199.231 58.0031 197.255 57.4292 195.427 56.6641C193.641 55.8989 192.047 54.9849 190.644 53.9222L193.131 47.482C194.534 48.4597 196.001 49.3099 197.531 50.0326C199.104 50.7127 200.762 51.2441 202.505 51.6267C204.29 51.9668 206.16 52.1368 208.116 52.1368C211.474 52.1368 213.918 51.5842 215.449 50.4789C216.979 49.3312 217.744 47.8646 217.744 46.0792C217.744 45.1015 217.51 44.2725 217.043 43.5924C216.575 42.8697 215.81 42.2533 214.747 41.7432C213.685 41.2331 212.282 40.808 210.539 40.4679L203.525 39.0014C199.486 38.1512 196.468 36.7271 194.47 34.7292C192.515 32.6887 191.537 30.0106 191.537 26.6949C191.537 23.8892 192.281 21.4449 193.769 19.362C195.257 17.279 197.318 15.6636 199.954 14.5159C202.59 13.3681 205.629 12.7942 209.072 12.7942C211.113 12.7942 213.068 13.0068 214.939 13.4319C216.851 13.8145 218.594 14.4096 220.167 15.2173C221.783 15.9825 223.185 16.9177 224.376 18.0229L221.889 24.1443C220.103 22.6565 218.148 21.5512 216.023 20.8285C213.897 20.0634 211.559 19.6808 209.008 19.6808C207.053 19.6808 205.374 19.9571 203.971 20.5097C202.568 21.0623 201.484 21.8488 200.719 22.869C199.996 23.8467 199.635 25.0157 199.635 26.376C199.635 27.9064 200.145 29.1392 201.165 30.0744C202.186 30.9671 203.929 31.6685 206.394 32.1786L213.344 33.6452C217.553 34.5379 220.677 35.9407 222.718 37.8536C224.801 39.7665 225.842 42.3171 225.842 45.5053C225.842 48.1834 225.12 50.5427 223.674 52.5832C222.229 54.6236 220.167 56.2177 217.489 57.3655C214.854 58.4707 211.729 59.0234 208.116 59.0234ZM232.975 58.3857V13.4319H239.798L256.759 44.7402H254.718L271.616 13.4319H278.311V58.3857H270.915V25.5471H272.317L258.034 51.5629H253.252L238.841 25.4833H240.372V58.3857H232.975ZM283.359 58.3857L303.7 13.4319H310.395L330.736 58.3857H322.447L317.027 45.7604L320.47 47.9921H293.561L297.005 45.7604L291.648 58.3857H283.359ZM306.952 22.2951L298.025 43.5286L296.367 41.4882H317.664L316.07 43.5286L307.079 22.2951H306.952Z" fill="url(#paint3_linear_12_13)"/>
</g>
<defs>
<linearGradient id="paint0_linear_12_13" x1="71.8265" y1="14.5203" x2="0.691309" y2="19.4958" gradientUnits="userSpaceOnUse">
<stop stop-color="#6142AA"/>
<stop offset="1" stop-color="#1C0B39"/>
</linearGradient>
<linearGradient id="paint1_linear_12_13" x1="47.0382" y1="72.418" x2="60.0651" y2="1.48252" gradientUnits="userSpaceOnUse">
<stop stop-color="#6142AA"/>
<stop offset="1" stop-color="#1C0B39"/>
</linearGradient>
<linearGradient id="paint2_linear_12_13" x1="44.8058" y1="27.8584" x2="21.819" y2="48.3191" gradientUnits="userSpaceOnUse">
<stop stop-color="#6142AA"/>
<stop offset="1" stop-color="#1C0B39"/>
</linearGradient>
<linearGradient id="paint3_linear_12_13" x1="207.968" y1="-5.61429" x2="207.968" y2="69.124" gradientUnits="userSpaceOnUse">
<stop stop-color="#6142AA"/>
<stop offset="1" stop-color="#2E1752"/>
</linearGradient>
<clipPath id="clip0_12_13">
<rect width="331.132" height="75" fill="white"/>
</clipPath>
</defs>
</svg>
