<svg width="250" height="75" viewBox="0 0 250 75" fill="none" xmlns="http://www.w3.org/2000/svg">
<path d="M54.2507 44.6745C58.2497 44.6745 61.4915 41.4327 61.4915 37.4337C61.4915 33.4347 58.2497 30.1929 54.2507 30.1929C50.2518 30.1929 47.01 33.4347 47.01 37.4337C47.01 41.4327 50.2518 44.6745 54.2507 44.6745Z" fill="#00D8FF"/>
<path fill-rule="evenodd" clip-rule="evenodd" d="M54.2509 22.7117C63.9726 22.7117 73.0038 24.1067 79.8133 26.451C88.0178 29.2756 93.0623 33.5569 93.0623 37.4337C93.0623 41.4736 87.7161 46.022 78.9056 48.9411C72.2446 51.148 63.4793 52.3001 54.2509 52.3001C44.7893 52.3001 35.8296 51.2187 29.0936 48.9169C20.5713 46.004 15.4382 41.3967 15.4382 37.4337C15.4382 33.5884 20.2546 29.3401 28.3438 26.5198C35.1787 24.1369 44.4329 22.7117 54.2496 22.7117H54.2509Z" stroke="#00D8FF" stroke-width="1.66272"/>
<path fill-rule="evenodd" clip-rule="evenodd" d="M41.4349 30.1152C46.2918 21.6936 52.0117 14.567 57.4444 9.83921C63.9899 4.14295 70.2189 1.91214 73.5771 3.84866C77.0769 5.86687 78.3462 12.7705 76.4735 21.8609C75.059 28.7337 71.6767 36.9021 67.0664 44.8965C62.3395 53.0929 56.927 60.3142 51.5683 64.9981C44.7875 70.9255 38.2319 73.0706 34.7989 71.0908C31.4677 69.1712 30.1938 62.8754 31.7919 54.4588C33.1421 47.3475 36.5306 38.619 41.4334 30.115L41.4349 30.1152Z" stroke="#00D8FF" stroke-width="1.66272"/>
<path fill-rule="evenodd" clip-rule="evenodd" d="M41.4471 44.918C36.5765 36.5059 33.2605 27.9896 31.8763 20.9218C30.2101 12.4062 31.3882 5.8953 34.7434 3.95315C38.2397 1.92902 44.8546 4.27703 51.7949 10.4395C57.0423 15.0986 62.4305 22.107 67.0543 30.0938C71.7947 38.2823 75.3477 46.5781 76.7298 53.5598C78.4787 62.3949 77.0632 69.1455 73.6334 71.1309C70.3055 73.0575 64.2157 71.0178 57.7221 65.4298C52.2356 60.7086 46.3657 53.4136 41.4471 44.9178V44.918Z" stroke="#00D8FF" stroke-width="1.66272"/>
<path fill-rule="evenodd" clip-rule="evenodd" d="M134.625 55.9333L125.75 42.525C130.235 42.1292 134.277 38.8792 134.277 32.9417C134.277 26.9 129.99 23.0333 123.975 23.0333H110.767V55.9083H114.858V42.8458H121.415L129.794 55.9083L134.625 55.9333ZM123.485 39.2729H114.86V26.7042H123.485C127.381 26.7042 130.042 29.2667 130.042 32.9646C130.042 36.6625 127.379 39.2771 123.485 39.2771V39.2729ZM149.856 56.5229C153.752 56.5229 156.954 55.2417 159.321 52.8771L157.546 50.4604C155.671 52.3833 152.912 53.4667 150.202 53.4667C145.077 53.4667 141.921 49.7208 141.625 45.2375H160.896V44.3C160.896 37.1542 156.656 31.5333 149.458 31.5333C142.656 31.5333 137.729 37.1042 137.729 44.0042C137.729 51.4479 142.806 56.5042 149.854 56.5042L149.856 56.5229ZM157.252 42.5229H141.627C141.825 38.8771 144.335 34.5854 149.415 34.5854C154.837 34.5854 157.202 38.9729 157.252 42.5229ZM185.448 55.9312V39.5667C185.448 33.8 181.26 31.5312 176.231 31.5312C172.335 31.5312 169.281 32.8125 166.719 35.475L168.444 38.0375C170.562 35.7708 172.881 34.7354 175.74 34.7354C179.19 34.7354 181.754 36.5583 181.754 39.7625V44.05C179.831 41.8312 177.121 40.7958 173.867 40.7958C169.825 40.7958 165.533 43.3104 165.533 48.6333C165.533 53.8083 169.821 56.5208 173.867 56.5208C177.071 56.5208 179.783 55.3875 181.754 53.2187V55.9271L185.448 55.9312ZM175.198 53.8604C171.748 53.8604 169.331 51.6937 169.331 48.6854C169.331 45.6292 171.748 43.4604 175.198 43.4604C177.81 43.4604 180.323 44.4458 181.754 46.4187V50.9042C180.325 52.875 177.81 53.8604 175.198 53.8604ZM203.323 56.5229C207.66 56.5229 210.223 54.7479 212.048 52.3833L209.583 50.1167C208.006 52.2354 205.985 53.2208 203.542 53.2208C198.465 53.2208 195.312 49.2771 195.312 44.0042C195.312 38.7312 198.467 34.8375 203.542 34.8375C206.006 34.8375 208.027 35.775 209.583 37.9417L212.048 35.675C210.225 33.3083 207.66 31.5354 203.323 31.5354C196.225 31.5354 191.444 36.9583 191.444 44.0062C191.444 51.1042 196.225 56.5062 203.323 56.5062V56.5229ZM223.24 56.5229C225.406 56.5229 226.74 55.8812 227.677 54.9958L226.594 52.2354C226.1 52.7771 225.135 53.2208 224.079 53.2208C222.454 53.2208 221.662 51.9396 221.662 50.1646V35.3771H226.496V32.125H221.662V25.6187H217.965V32.125H214.021V35.3792H217.965V50.9562C217.965 54.5062 219.74 56.5271 223.24 56.5271V56.5229Z" fill="#00D8FF"/>
</svg>
