<svg width="824" height="517" viewBox="0 0 824 517" fill="none" xmlns="http://www.w3.org/2000/svg">
<g clip-path="url(#clip0_5_4)">
<path opacity="0.18" d="M823.65 366.08C822.835 382.053 818.751 397.689 811.65 412.02C800.07 435.02 782.05 453.81 760.72 468.34C748.821 476.388 736.111 483.169 722.8 488.57C715.473 491.568 707.997 494.185 700.4 496.41C654.4 509.87 605.86 510.53 557.98 511.09L220.98 515.03L176.66 515.54C162.56 515.71 148.19 515.81 133.97 515.03C106.84 513.57 80.21 508.94 56.86 495.61C44.836 488.699 34.3379 479.422 26 468.34C10.17 447.45 1.61001 420.81 1.20001 394.26V391.47C1.37001 365.56 9.37001 339.95 26.01 320.06C27.07 318.8 28.15 317.55 29.28 316.34C31.63 313.8 34.2 311.34 36.9 308.88C54.09 293.37 76.79 279.47 87.08 259.49C105.18 224.33 82.61 209.98 79.64 175.49C74.64 117.49 133.36 50.84 181.06 24.23C232.34 -4.45 296.94 -7.89 351 15.12C408.2 39.48 461.58 92.53 521.92 77.57C541.32 72.76 559.14 60.92 579.13 60.57C616.07 59.86 641.71 97.43 653.21 132.57C664.71 167.71 670.95 207.37 698.29 232.24C717.91 250.08 744.96 256.79 768.72 268.64C775.935 272.142 782.768 276.381 789.11 281.29C803.11 292.35 812.73 307.36 818.27 324.04C822.667 337.596 824.492 351.854 823.65 366.08Z" fill="#68E1FD"/>
<path opacity="0.18" d="M760.93 468.67C742.401 481.096 722.051 490.563 700.61 496.73C657.61 509.32 612.4 510.73 567.61 511.29L558.22 511.41L434.5 512.86L371.66 513.6L231.79 515.23L221.18 515.35L176.85 515.87C162.75 516.04 148.39 516.13 134.16 515.35C107 513.93 80.37 509.3 57 495.96C45.0147 489.034 34.5576 479.75 26.26 468.67H760.93Z" fill="#68E1FD"/>
<path opacity="0.05" d="M624.57 491.13C624.86 495.3 621.9 499.33 622.74 503.42C623.98 509.42 630.83 508.42 636.97 507.97C651.89 506.75 670.97 504.47 685.5 500.72C698.95 497.24 708.74 493.88 721.56 489.72C722.56 489.39 722.25 486.55 722.3 485.5C722.38 484.11 720.54 483.59 719.15 483.5C706.47 483.09 693.65 483.5 681.21 481C675.62 479.86 670.14 478.12 664.47 477.47C657.47 476.68 650.47 477.54 643.47 477.01C638.4 476.62 626.05 471.07 621.34 473.35C614.28 476.84 624.22 486.09 624.57 491.13ZM330.78 494.89C345.43 499 357.28 507.7 370.18 514.44C323.553 514.967 276.93 515.507 230.31 516.06C234.221 512.33 238.589 509.111 243.31 506.48C258.64 497.9 276.65 495.92 294.11 494.1C306.31 492.82 318.92 491.57 330.78 494.89ZM568.57 507.21C568.357 508.546 567.783 509.797 566.91 510.83C566.6 511.231 566.338 511.668 566.13 512.13L556.74 512.25L433 513.67C435.244 511.928 437.277 509.931 439.06 507.72C441.64 504.52 443.7 500.89 446.7 498.11C455.56 489.89 469.59 491.42 481.07 495.11C484.56 496.25 488.07 497.55 491.75 497.5C498.27 497.42 503.87 493.18 509.75 490.26C528.22 481.04 552.67 485.98 566.11 501.65C567.43 503.27 568.74 505.15 568.57 507.21Z" fill="#000405"/>
<path d="M502.57 367.05L479.7 479.52L464.33 477.76L462.56 477.55C462.56 477.55 466.96 444.21 468.86 396.66C470.11 365.16 475.5 339.44 478.08 318.06C478.879 312.17 480.218 306.365 482.08 300.72C485.2 291.26 489.95 282.41 495.99 283.32C509.33 285.32 526.9 296.85 529.22 304.07C533.26 316.67 502.57 367.05 502.57 367.05Z" fill="#25233A"/>
<path opacity="0.24" d="M486.58 301.04C486.58 301.04 476.33 380.42 476 405.19C475.67 429.96 465.48 477.55 465.48 477.55L464.3 477.76L462.53 477.55C462.53 477.55 466.93 444.21 468.83 396.66C470.08 365.16 475.47 339.44 478.05 318.06C478.849 312.17 480.188 306.365 482.05 300.72C483.567 300.652 485.087 300.759 486.58 301.04Z" fill="white"/>
<path d="M555 479.34H538.05C538.047 479.307 538.047 479.273 538.05 479.24C537.59 476.95 529.05 434.65 516.98 404.01C507.98 381.16 503.63 334.62 501.98 310.8C501.32 301.8 501.06 296.04 501.06 296.04C501.06 296.04 535.58 285.85 540.06 290.37C544.54 294.89 549.63 315.37 549.63 315.37C549.63 315.37 537.81 396.47 545.33 401.97C552.85 407.47 555 479.34 555 479.34Z" fill="#3F3D56"/>
<path d="M286 155.2C286 155.2 260.86 162.95 250.68 235.51C247 261.67 270.4 307.88 270.4 307.88L286 155.2Z" fill="#68E1FD"/>
<path opacity="0.61" d="M286 155.2C286 155.2 260.86 162.95 250.68 235.51C247 261.67 270.4 307.88 270.4 307.88L286 155.2Z" fill="url(#paint0_linear_5_4)"/>
<path d="M267.64 298.82C266.098 298.565 264.518 298.683 263.031 299.162C261.543 299.642 260.192 300.47 259.09 301.578C257.987 302.685 257.165 304.04 256.692 305.529C256.219 307.019 256.109 308.599 256.37 310.14C258.29 321.48 261.95 337.22 268.37 346.14C279.2 361.07 294 381.67 294 381.67L309.3 486.67L328.17 484.12L328 383.5L306.7 305.27L267.64 298.82Z" fill="#25233A"/>
<path d="M306.65 305.27L304.2 392.67L263.75 486.74L250.2 480.97L246.26 479.28L268.66 391.08C268.66 391.08 259.94 367.08 253.52 349.58C247.36 332.79 255.74 299.52 256.44 296.84V296.66L306.65 305.27Z" fill="#3F3D56"/>
<path d="M474.15 249.37L424.24 274.11L414.92 262.24L412.53 259.18L455.17 236.03C455.17 236.03 469.82 203.46 473 188.49C473.61 185.71 474.22 183.49 474.79 181.58C475.9 178.11 486.49 165.85 490.05 165.12C493.61 164.39 489.6 175.33 491.97 178.12C494.572 181.946 495.902 186.495 495.77 191.12C496.18 200.4 474.15 249.37 474.15 249.37Z" fill="#2563EB"/>
<path d="M540 278.34C540 278.34 515.21 308.13 486.63 301.04C484.663 300.544 482.737 299.896 480.87 299.1C479.658 298.579 478.561 297.823 477.643 296.877C476.724 295.93 476.002 294.811 475.518 293.584C475.034 292.357 474.797 291.047 474.821 289.728C474.846 288.409 475.131 287.108 475.66 285.9C478.42 279.64 478.5 270.59 478.25 262.24C477.67 243.03 472.81 222.24 472.45 213.59C472.21 208.06 473.1 200.23 474.73 192.41C477.6 178.51 482.78 164.66 488.04 163.86C503.68 161.45 509.04 165.71 509.04 165.71L535.74 181.22C549 195.12 542.54 216.88 540 278.34Z" fill="#2563EB"/>
<path d="M500.81 199.88L507.64 210.88L488.73 230.01L484.84 233.95L505.39 164.3L505.47 157.33L508.08 160V160.01L511.5 163.51L512.81 192.35L500.81 199.88Z" fill="#68E1FD"/>
<path opacity="0.61" d="M537.46 216.31L534.56 291.4C534.56 291.4 493.76 310.79 488.37 289C484.2 272.16 494.87 252.95 494.87 252.95L537.46 216.31Z" fill="url(#paint1_linear_5_4)"/>
<path d="M497.28 257.95L485.01 307.36L560.83 322.92L571.73 274.58L497.28 257.95Z" fill="white"/>
<path d="M506 146.31C506 146.53 505.73 157.72 505.34 164.84C505.06 170.35 502.48 174.23 498.54 178.07C496.251 180.461 493.498 182.36 490.45 183.65C489.713 183.922 488.915 183.985 488.143 183.834C487.372 183.682 486.658 183.321 486.078 182.79C485.499 182.259 485.077 181.579 484.858 180.824C484.64 180.069 484.634 179.268 484.84 178.51C485.23 177.03 485.62 175.31 485.92 173.51C486.56 169.8 486.84 165.78 485.83 162.94C485.804 162.834 485.771 162.731 485.73 162.63C485.13 161.16 485.73 159.56 487.09 157.95C489 155.68 492.34 153.38 495.67 151.44C499.014 149.537 502.463 147.824 506 146.31Z" fill="url(#paint2_linear_5_4)"/>
<path d="M488.1 172.76C487.415 173.103 486.689 173.359 485.94 173.52C486.58 169.81 486.86 165.79 485.85 162.95L487.11 157.95L488.06 154.23L495.69 151.44L503.42 148.62C501.56 162.38 494.2 169.87 488.1 172.76Z" fill="url(#paint3_linear_5_4)"/>
<path d="M486 107.21C482.973 107.396 480.018 108.205 477.319 109.588C474.62 110.97 472.236 112.896 470.317 115.243C468.397 117.591 466.984 120.31 466.166 123.23C465.347 126.149 465.141 129.207 465.56 132.21C466.259 141.145 468.569 149.879 472.38 157.99C479.57 170.19 497.63 160.09 500.48 155.05C503.33 150.01 514.08 127.21 509.54 120.74C506.54 116.26 497.72 106.67 486 107.21Z" fill="url(#paint4_linear_5_4)"/>
<path d="M466.88 98.61L470.6 100.51C468.383 100.465 466.187 100.948 464.193 101.918C462.198 102.888 460.463 104.318 459.13 106.09C455.732 109.499 453.811 114.107 453.78 118.92L460.09 115.92C460.09 115.92 459.62 123.71 471.58 124.28C483.54 124.85 496.2 125.28 496.2 125.28L492.14 119.67C492.14 119.67 499.58 122.67 500.88 125.38C502.072 129.782 502.928 134.268 503.44 138.8C503.44 138.8 506.39 131.11 507.62 132.8C508.85 134.49 506.34 141.45 504.79 142.98C503.24 144.51 503.5 149.09 503.36 149.47C503.22 149.85 510.77 143.56 511.1 141.4C511.43 139.24 518.91 117.4 514 112.84L517 112.61C515.24 111.421 513.233 110.648 511.13 110.35C511.13 110.35 491.43 84.67 466.88 98.61Z" fill="#3F3D56"/>
<path d="M389.14 269.42C392.409 266.565 395.988 264.086 399.81 262.03C402.806 260.973 405.931 260.327 409.1 260.11C409.1 260.11 409.62 264.48 407.1 264.77C404.58 265.06 402.48 268.89 402.48 268.89C402.48 268.89 418.65 275.51 420.88 274.89C423.11 274.27 422.67 277.49 418.58 277.28C414.49 277.07 413.49 282.79 410.66 282.71C407.83 282.63 403.35 284.38 399.19 284.53C394.986 284.18 390.855 283.216 386.93 281.67L389.14 269.42Z" fill="url(#paint5_linear_5_4)"/>
<path d="M326.56 222.98L313 299.23C313 299.23 308.32 313.82 284.1 311.64C275.239 310.891 266.904 307.121 260.49 300.96L260.1 300.59L259.83 300.31C255.191 295.721 251.558 290.218 249.16 284.15C249.16 284.15 264.72 176.67 281.06 157.96C282.69 156.1 284.32 155.11 285.96 155.2C290.436 155.797 294.71 157.434 298.44 159.98C308.922 166.432 317.214 175.897 322.231 187.137C327.248 198.377 328.757 210.869 326.56 222.98Z" fill="#2563EB"/>
<path opacity="0.61" d="M301.07 220.46L284.07 311.63C284.07 311.63 310.12 315.21 312.97 299.23L321 252.86L301.07 220.46Z" fill="url(#paint6_linear_5_4)"/>
<path d="M286 155.2C286 155.2 288.59 135.59 289.63 122.84C290.67 110.09 294.83 93.01 316.23 95.2C337.63 97.39 337.7 129.74 331.79 143.28C325.88 156.82 317.97 156.43 317.97 156.43C317.97 156.43 307.31 154.11 307.71 166.93L286 155.2Z" fill="url(#paint7_linear_5_4)"/>
<path d="M293.9 92.49C290.785 95.4842 288.536 99.2638 287.39 103.43C286.43 106.807 285.78 110.265 285.45 113.76L287.63 111.37C287.522 117.354 287.078 123.326 286.3 129.26C285.487 134.788 285.153 140.375 285.3 145.96L289.3 145.76L294.3 151.9L299.82 148.16L303.97 145.95L307.67 136.81C306.752 136.147 306.078 135.2 305.753 134.115C305.427 133.031 305.469 131.869 305.87 130.81C307.23 127.08 310.61 126.22 311.4 128.42C312.003 131.161 312.338 133.954 312.4 136.76L318.3 120.05C318.3 120.05 322 114.86 325.24 118.43C327.184 120.589 329.639 122.226 332.38 123.19L330.43 117.67L335.78 119.04L335.36 112.66L339.36 115.45C339.36 115.45 341.11 105.12 337.72 100.54C334.33 95.96 320.83 77.67 293.9 92.49Z" fill="#3F3D56"/>
<path d="M389.59 267.35L386.88 281.67L386.15 285.52L337.34 281.88C323.83 280.72 310.57 271.48 308.89 257.97L292 198.34C291.239 195.895 291.11 193.297 291.626 190.789C292.142 188.281 293.285 185.944 294.949 183.998C296.614 182.052 298.744 180.56 301.142 179.662C303.54 178.763 306.127 178.487 308.66 178.86C311.876 179.339 314.894 180.711 317.369 182.82C319.844 184.929 321.677 187.69 322.66 190.79L333.29 244.16C333.915 247.294 335.428 250.181 337.65 252.478C339.872 254.774 342.709 256.382 345.82 257.11L389.59 267.35Z" fill="#2563EB"/>
<path d="M414.92 262.23L408.12 264.35C408.12 264.35 399.62 265.11 396.79 267.53C393.96 269.95 395.54 271.04 395.54 271.04C395.54 271.04 404.54 269.72 406.48 270.47C408.42 271.22 417.91 274.99 420.91 274.94C423.91 274.89 424.24 274.11 424.24 274.11L414.92 262.23Z" fill="url(#paint8_linear_5_4)"/>
<path d="M394.41 280.04C394.911 279.594 395.509 279.271 396.156 279.098C396.804 278.924 397.483 278.904 398.14 279.04C398.287 279.065 398.424 279.135 398.53 279.24C398.595 279.362 398.629 279.497 398.629 279.635C398.629 279.773 398.595 279.908 398.53 280.03C398.079 281.554 397.361 282.986 396.41 284.26C397.47 283.9 397.96 282.72 398.63 281.83C399.136 281.163 399.784 280.617 400.528 280.232C401.272 279.848 402.093 279.636 402.93 279.61C403.131 279.591 403.333 279.632 403.51 279.73C403.92 280.01 403.74 280.65 403.51 281.1C403.09 281.94 402.68 282.79 402.26 283.64C403.316 282.105 404.544 280.696 405.92 279.44C406.246 279.087 406.66 278.828 407.12 278.69C407.35 278.619 407.599 278.633 407.819 278.731C408.04 278.828 408.217 279.002 408.32 279.22C408.405 279.487 408.405 279.773 408.32 280.04C408.029 281.196 407.52 282.285 406.82 283.25C407.665 281.856 408.725 280.604 409.96 279.54C410.048 279.437 410.159 279.357 410.284 279.307C410.41 279.256 410.545 279.237 410.68 279.25C410.831 279.3 410.957 279.408 411.03 279.55C411.45 280.25 411.03 281.14 410.59 281.84C409.78 283.13 408.75 284.51 407.24 284.74C406.9 284.756 406.564 284.817 406.24 284.92C406.008 285.039 405.79 285.183 405.59 285.35C405.07 285.707 404.458 285.905 403.827 285.92C403.196 285.934 402.575 285.764 402.04 285.43C401.311 285.893 400.462 286.132 399.598 286.118C398.734 286.104 397.894 285.837 397.18 285.35C397.021 285.199 396.815 285.107 396.596 285.091C396.377 285.074 396.16 285.134 395.98 285.26C395.329 285.482 394.626 285.496 393.967 285.301C393.307 285.105 392.725 284.71 392.3 284.17C391.4 282.86 393.42 280.87 394.41 280.04Z" fill="url(#paint9_linear_5_4)"/>
<path d="M540.94 304.9L524.24 299.13L523.67 298.93L535.84 259.81C535.84 259.81 519.84 215.86 517.18 202.34C516.322 197.861 516.281 193.264 517.06 188.77C517.452 186.436 518.541 184.276 520.183 182.572C521.824 180.868 523.943 179.699 526.26 179.22C528.852 178.65 531.561 179.004 533.92 180.22C536.002 181.301 538.006 182.524 539.92 183.88C541.454 184.995 542.542 186.618 542.99 188.46C545.99 200.78 558.06 251.04 558.51 255.81C559 261.28 540.94 304.9 540.94 304.9Z" fill="#2563EB"/>
<path d="M519.31 302.45C518.49 303.23 517.71 304.63 518.58 305.37C518.79 305.55 519.08 305.65 519.25 305.87C519.67 306.4 519.15 307.14 518.67 307.61L514.67 311.5C513.19 312.93 511.58 314.72 511.92 316.75C512.084 317.473 512.439 318.137 512.95 318.674C513.46 319.211 514.107 319.6 514.82 319.8C516.255 320.174 517.764 320.156 519.19 319.75C519.166 320.171 519.265 320.589 519.477 320.954C519.689 321.318 520.003 321.613 520.38 321.8C521.145 322.161 521.975 322.365 522.82 322.4C525.258 322.835 527.759 322.767 530.17 322.2C530.35 322.47 530.53 322.73 530.72 322.99C533.88 322.43 535.6 319.05 536.72 316.05C537.84 313.05 538.98 309.71 539.94 306.48C540.118 306.045 540.15 305.564 540.03 305.11C539.88 304.843 539.677 304.61 539.432 304.426C539.188 304.242 538.908 304.11 538.61 304.04C534.79 302.59 530.98 301.11 527.15 299.68C523.61 298.36 522 299.94 519.31 302.45Z" fill="url(#paint10_linear_5_4)"/>
<path d="M248.82 480.07L243.07 490.53L248.85 493.84L251 492.12L260.32 500.7C260.32 500.7 263.65 502.99 271.8 502.97C279.95 502.95 281.56 501.8 281.56 501.8C281.56 501.8 281.56 489.8 271.56 490.35C261.56 490.9 260.87 485.21 260.87 485.21L248.82 480.07Z" fill="url(#paint11_linear_5_4)"/>
<path d="M312.44 486.35L311.5 501.81H318.5V495.97L328 501.77L351.49 501.71C351.49 501.71 351.49 485.71 340.93 486.55C330.37 487.39 326.11 486.55 326.11 486.55L324.44 484.32L312.44 486.35Z" fill="url(#paint12_linear_5_4)"/>
<path d="M554.06 479.3L555.06 494.75H548.06V488.91L538.63 494.77L515.14 494.83C515.14 494.83 515.14 478.83 525.63 479.62C536.12 480.41 540.45 479.62 540.45 479.62L542.1 477.38L554.06 479.3Z" fill="url(#paint13_linear_5_4)"/>
<path d="M477.49 479.49L478.49 494.93H471.49V489.09L462 494.97L438.51 495.03C438.51 495.03 438.51 479.03 449 479.82C459.49 480.61 463.82 479.82 463.82 479.82L465.47 477.58L477.49 479.49Z" fill="url(#paint14_linear_5_4)"/>
<path d="M500.81 199.88L507.64 210.88L488.73 230.01L484.84 233.95L505.39 164.3L505.47 157.33L508.08 160V160.01L511.5 163.51L512.81 192.35L500.81 199.88Z" fill="#68E1FD"/>
<path d="M485.94 173.52L483.39 185.52L484.84 233.94L503.47 170.81L495.47 175.87C495.04 176.14 494.6 176.39 494.14 176.62C493.405 176.99 492.601 177.203 491.779 177.244C490.957 177.286 490.135 177.156 489.367 176.862C488.598 176.569 487.899 176.118 487.314 175.539C486.729 174.96 486.271 174.266 485.97 173.5L485.94 173.52Z" fill="white"/>
<path d="M486.06 163.85L477.75 179.42L480.51 185.92L476 195.67L484.81 233.94C484.81 233.94 482.4 187.16 485.91 173.5C485.94 173.52 487.1 166.98 486.06 163.85Z" fill="#68E1FD"/>
<path opacity="0.61" d="M500.81 199.88L507.64 210.88L488.73 230.01L484.84 233.95L505.39 164.3L505.47 157.33L508.08 160V160.01L511.5 163.51L512.81 192.35L500.81 199.88Z" fill="url(#paint15_linear_5_4)"/>
<path opacity="0.61" d="M486.06 163.85L477.75 179.42L480.51 185.92L476 195.67L484.81 233.94C484.81 233.94 482.4 187.16 485.91 173.5C485.94 173.52 487.1 166.98 486.06 163.85Z" fill="url(#paint16_linear_5_4)"/>
<path d="M285.32 151.92L309.87 164.13L316.51 177L281.08 157.94L285.32 151.92Z" fill="#68E1FD"/>
<path opacity="0.61" d="M285.32 151.92L309.87 164.13L316.51 177L281.08 157.94L285.32 151.92Z" fill="url(#paint17_linear_5_4)"/>
<path d="M219.7 321.22V516.22H198.23V427.76H4.57C1.7028 417.216 0.167517 406.355 0 395.43L0 392.67C0.17 366.77 8.16 341.15 24.81 321.26L219.7 321.22ZM242.61 310.04V321.22H24.81C25.8643 319.952 26.9513 318.712 28.07 317.5C30.43 314.96 32.99 312.5 35.7 310.04H242.61ZM124.15 245.67C121.69 243.31 118.75 241.51 116.15 239.35C115.23 238.59 114.26 237.57 114.44 236.35C114.555 235.878 114.806 235.449 115.161 235.117C115.516 234.785 115.961 234.563 116.44 234.48C117.412 234.345 118.402 234.406 119.35 234.66L113.75 228.36C113.23 227.77 112.67 226.96 113.05 226.27C113.43 225.58 114.5 225.62 115.24 225.97C115.909 226.434 116.689 226.713 117.5 226.78C115.5 223.97 112.96 221.68 110.83 219.01C108.7 216.34 106.99 213.01 107.31 209.65C107.315 209.16 107.488 208.687 107.8 208.31C108.44 207.67 109.52 207.94 110.35 208.31C116.274 210.888 121.026 215.58 123.68 221.47C122.757 218.602 122.383 215.586 122.58 212.58C122.56 212.23 122.617 211.88 122.749 211.555C122.88 211.23 123.082 210.938 123.34 210.7C124.34 210.01 125.66 211.2 126.24 212.31C130.18 219.98 127.43 229.31 129.04 237.8C129.25 235.439 130.351 233.247 132.12 231.67C132.609 236.04 132.441 240.46 131.62 244.78C132.85 245.32 132.75 247.08 132.44 248.4C132.042 250.424 131.542 252.427 130.94 254.4C128.74 254.22 128.7 253.02 128.01 251.25C127.141 249.133 125.825 247.229 124.15 245.67Z" fill="#2563EB"/>
<path d="M141.78 219.53C143.85 217.18 146.33 214.95 149.4 214.31C150.33 216.1 149.4 218.31 148.11 219.88C146.82 221.45 145.22 222.88 144.57 224.74C147.248 221.543 150.872 219.277 154.92 218.27C156.357 217.782 157.928 217.872 159.3 218.52C159.496 218.624 159.67 218.766 159.811 218.937C159.951 219.109 160.057 219.307 160.12 219.52C160.36 220.62 158.96 221.28 157.86 221.52C150.141 223.554 143.367 228.202 138.69 234.67C143.253 231.911 148.601 230.74 153.9 231.34C154.82 231.45 155.9 231.73 156.24 232.58C156.77 233.84 155.34 235.04 154.04 235.47C149.04 237.13 142.78 235.36 138.74 238.78C140.928 238.545 143.124 239.153 144.88 240.48C146.29 241.55 147.33 243.74 146.09 245C145.671 245.328 145.185 245.559 144.666 245.677C144.148 245.794 143.609 245.795 143.09 245.68C140.2 245.43 136.64 244.95 134.98 247.33C134.07 248.64 134.14 250.33 133.8 251.93C133.53 253.2 132.48 255.45 131.1 254.21C130.18 253.38 130.54 250.48 130.54 249.38C130.608 238.421 134.587 227.846 141.76 219.56L141.78 219.53Z" fill="#68E1FD"/>
<path opacity="0.61" d="M124.15 245.67C121.69 243.31 118.75 241.51 116.15 239.35C115.23 238.59 114.26 237.57 114.44 236.35C114.555 235.878 114.806 235.449 115.161 235.117C115.517 234.785 115.961 234.563 116.44 234.48C117.412 234.345 118.402 234.406 119.35 234.66L113.75 228.36C113.23 227.77 112.67 226.96 113.05 226.27C113.43 225.58 114.5 225.62 115.24 225.97C115.909 226.434 116.689 226.713 117.5 226.78C115.5 223.97 112.96 221.68 110.83 219.01C108.7 216.34 106.99 213.01 107.31 209.65C107.315 209.16 107.488 208.687 107.8 208.31C108.44 207.67 109.52 207.94 110.35 208.31C116.274 210.888 121.026 215.58 123.68 221.47C122.757 218.602 122.383 215.586 122.58 212.58C122.56 212.23 122.617 211.88 122.749 211.555C122.88 211.23 123.082 210.938 123.34 210.7C124.34 210.01 125.66 211.2 126.24 212.31C130.18 219.98 127.43 229.31 129.04 237.8C129.25 235.439 130.351 233.247 132.12 231.67C132.609 236.04 132.441 240.46 131.62 244.78C132.85 245.32 132.75 247.08 132.44 248.4C132.042 250.424 131.542 252.427 130.94 254.4C128.74 254.22 128.7 253.02 128.01 251.25C127.141 249.133 125.825 247.229 124.15 245.67Z" fill="url(#paint18_linear_5_4)"/>
<path opacity="0.61" d="M141.78 219.53C143.85 217.18 146.33 214.95 149.4 214.31C150.33 216.1 149.4 218.31 148.11 219.88C146.82 221.45 145.22 222.88 144.57 224.74C147.248 221.543 150.872 219.277 154.92 218.27C156.357 217.782 157.928 217.872 159.3 218.52C159.496 218.624 159.67 218.766 159.811 218.937C159.951 219.109 160.057 219.307 160.12 219.52C160.36 220.62 158.96 221.28 157.86 221.52C150.141 223.554 143.367 228.202 138.69 234.67C143.253 231.911 148.601 230.74 153.9 231.34C154.82 231.45 155.9 231.73 156.24 232.58C156.77 233.84 155.34 235.04 154.04 235.47C149.04 237.13 142.78 235.36 138.74 238.78C140.928 238.545 143.124 239.153 144.88 240.48C146.29 241.55 147.33 243.74 146.09 245C145.671 245.328 145.185 245.559 144.666 245.677C144.148 245.794 143.609 245.795 143.09 245.68C140.2 245.43 136.64 244.95 134.98 247.33C134.07 248.64 134.14 250.33 133.8 251.93C133.53 253.2 132.48 255.45 131.1 254.21C130.18 253.38 130.54 250.48 130.54 249.38C130.608 238.421 134.587 227.846 141.76 219.56L141.78 219.53Z" fill="url(#paint19_linear_5_4)"/>
<path d="M143.88 309.93L132.44 309.99L121.12 310.04C96.22 295.23 124.95 265.21 124.95 265.21C124.95 265.21 126.09 260.53 124.6 257.58C124.261 256.866 123.723 256.265 123.05 255.85C119.38 253.65 124.5 252.78 124.5 252.78H139.86C139.86 252.78 145.12 253.22 141.17 255.99C137.22 258.76 139.42 265.21 139.42 265.21C170.2 299.38 143.88 309.93 143.88 309.93Z" fill="white"/>
<path opacity="0.51" d="M133.27 309.09C133.017 309.411 132.74 309.712 132.44 309.99L121.12 310.04C96.22 295.23 124.95 265.21 124.95 265.21C124.95 265.21 126.09 260.53 124.6 257.58C129.6 257.2 132.01 263.65 131.34 267.75C130.83 270.91 130.34 274.08 129.79 277.24C129.151 280.195 128.983 283.232 129.29 286.24C129.91 290.24 132.19 293.77 133.68 297.53C135.17 301.29 135.76 305.89 133.27 309.09Z" fill="url(#paint20_linear_5_4)"/>
<path opacity="0.61" d="M219.7 321.22L107.82 353C88.4147 358.513 70.3705 368.008 54.8372 380.879C39.3039 393.751 26.6222 409.717 17.6 427.76H4.6C1.72267 417.218 0.177301 406.356 0 395.43L0 392.67C0.17 366.77 8.16 341.15 24.81 321.26L219.7 321.22Z" fill="url(#paint21_linear_5_4)"/>
<path opacity="0.61" d="M198.23 427.76H208.49V516.06H198.23V427.76Z" fill="url(#paint22_linear_5_4)"/>
<path d="M822.44 367.24C821.622 383.213 817.538 398.848 810.44 413.18C807.809 418.4 804.836 423.441 801.54 428.27C790.46 444.55 775.97 458.27 759.54 469.51C747.638 477.551 734.929 484.328 721.62 489.73L695.11 484.84L644.3 475.47C641.81 475.01 639.4 474.72 637.12 474.47C627.75 473.41 620.46 472.89 617.71 463.38C614.3 451.67 617.71 433.75 617.71 421.47C617.71 400.13 619.94 374.72 638.52 364.24C653.94 355.56 673.52 361.69 690.73 357.67C692.39 357.405 693.954 356.716 695.27 355.67C697.27 353.82 697.58 350.82 697.63 348.1C698.06 327.45 691.16 304.29 703.5 287.73C712.94 275.07 730.21 271.58 745.93 270.12C750.769 269.656 755.629 269.446 760.49 269.49C762.85 269.49 765.207 269.59 767.56 269.79C783.85 271.05 799.37 276.28 807.65 289.69C812.08 296.85 813.65 305.35 815.13 313.64C815.8 317.47 816.47 321.33 817.13 325.19C819.33 339.05 821.33 353.16 822.44 367.24Z" fill="#3F3D56"/>
<path d="M822.44 367.24C821.622 383.213 817.538 398.848 810.44 413.18C807.809 418.4 804.836 423.441 801.54 428.27C795.45 430.86 788.12 430.83 781.33 430.93C770.642 431.091 759.979 432.006 749.42 433.67C744.68 434.41 739.74 435.4 736.02 438.44C731.11 442.44 729.41 449.27 729.14 455.62C728.87 461.97 729.72 468.4 728.64 474.67C728.385 476.783 727.582 478.793 726.31 480.5C723.76 483.57 719.31 484.12 715.31 484.37C708.55 484.783 701.787 484.95 695.02 484.87C678.003 484.65 661.042 482.869 644.35 479.55C641.46 478.97 638.09 477.94 637.17 475.13C637.103 474.922 637.056 474.707 637.03 474.49C636.877 473.169 636.999 471.831 637.39 470.56L646.54 431.39C647.78 426.07 649.06 420.65 651.89 415.98C657.53 406.63 668.25 401.85 678.3 397.62L705.36 386.21C712.76 383.11 717.79 382.71 717.13 374C715.68 354.74 711.64 336 711.64 316.56C711.64 310.98 711.9 305.21 714.3 300.19C716.7 295.17 721.01 291.35 725.44 287.99C736.073 280.066 747.861 273.823 760.39 269.48C762.75 269.48 765.107 269.58 767.46 269.78C783.75 271.04 799.27 276.27 807.55 289.68C811.98 296.84 813.55 305.34 815.03 313.63C815.7 317.46 816.37 321.32 817.03 325.18C818.48 333.95 819.81 342.81 820.88 351.69C821.5 356.85 822 362.05 822.44 367.24Z" fill="#25233A"/>
<path d="M822.44 367.24C821.622 383.213 817.538 398.848 810.44 413.18C807.809 418.4 804.836 423.441 801.54 428.27C795.45 430.86 788.12 430.83 781.33 430.93C770.642 431.091 759.979 432.006 749.42 433.67C744.68 434.41 739.74 435.4 736.02 438.44C736.02 438.44 742.23 404.12 767.56 392.56C792.89 381 820.88 351.67 820.88 351.67C821.5 356.85 822 362.05 822.44 367.24Z" fill="#3F3D56"/>
<path d="M266.53 296.32C266.392 296.199 266.258 296.072 266.13 295.94L266.22 296.02C266.336 296.105 266.441 296.206 266.53 296.32Z" fill="url(#paint23_linear_5_4)"/>
<path opacity="0.24" d="M255.45 280.41C255.45 280.41 256.9 296.5 260.62 300.59C255.877 295.896 252.162 290.266 249.71 284.06C249.71 284.06 265.71 174.18 282.37 155.06L286.85 157.44L255.45 280.41ZM472.47 193.67L472.7 204.67L458.34 240.82L414.46 263.82L412 260.67L455.61 236.99C455.61 236.99 469.22 208.95 472.47 193.67ZM387.82 280.32L387.08 284.26L337.16 280.54C323.34 279.35 309.78 269.9 308.06 256.09L290.83 195.09C290.05 192.587 289.917 189.928 290.441 187.359C290.966 184.791 292.131 182.397 293.83 180.4C293.83 180.4 309.92 255.9 315.83 262.66C321.74 269.42 333 273.47 333 273.47L387.82 280.32Z" fill="white"/>
<path opacity="0.24" d="M276.62 398.67L249.77 483.47L245.77 481.75L268.68 391.55C268.68 391.55 259.76 367 253.2 349.1C246.9 331.93 255.47 297.91 256.2 295.17L259.63 298.72C259.63 298.72 250.63 338.98 262.21 358.12C273.79 377.26 276.62 398.67 276.62 398.67ZM487.25 300.96C485.238 300.447 483.268 299.779 481.36 298.96C480.118 298.43 478.994 297.659 478.052 296.692C477.111 295.724 476.37 294.579 475.875 293.324C475.379 292.068 475.137 290.726 475.164 289.376C475.191 288.026 475.485 286.695 476.03 285.46C478.86 279.06 478.94 269.8 478.68 261.26C478.09 241.62 473.12 220.39 472.75 211.51C472.51 205.86 473.42 197.85 475.08 189.85L478.22 176.56C478.22 176.56 475.34 198.12 474.6 204.03C473.86 209.94 480.65 243.59 483.11 248.47C485.57 253.35 481.22 282.07 481.81 288.89C482.4 295.71 487.25 300.96 487.25 300.96ZM542.94 479.54L538.85 481.54C538.38 479.19 529.63 435.94 517.3 404.6C508.09 381.23 503.65 333.6 501.92 309.28L506.99 310.28C506.99 310.28 514.51 372.38 522.77 395.34C531.03 418.3 542.94 479.54 542.94 479.54ZM540.46 257.67L527.2 300.38L524.2 299.81L523.61 299.61L536.06 259.61C536.06 259.61 519.76 214.67 517 200.83C516.119 196.249 516.075 191.547 516.87 186.95C517.27 184.562 518.383 182.352 520.062 180.608C521.741 178.864 523.909 177.669 526.28 177.18C526.28 177.18 517.28 183.45 520.02 197.31C523.6 215.12 540.46 257.67 540.46 257.67ZM510.15 166.16L489.42 231.92L485.44 235.95L506.46 164.72L506.54 157.59L509.21 160.32V160.33L510.15 166.16Z" fill="white"/>
</g>
<defs>
<linearGradient id="paint0_linear_5_4" x1="327.57" y1="257.36" x2="207.23" y2="194.46" gradientUnits="userSpaceOnUse">
<stop offset="0.17" stop-color="#00272E"/>
<stop offset="1" stop-color="#2563EB"/>
</linearGradient>
<linearGradient id="paint1_linear_5_4" x1="489.479" y1="358.819" x2="537.117" y2="190.192" gradientUnits="userSpaceOnUse">
<stop offset="0.17" stop-color="#00272E"/>
<stop offset="1" stop-color="#69B9EB" stop-opacity="0"/>
</linearGradient>
<linearGradient id="paint2_linear_5_4" x1="484.686" y1="165.12" x2="506.066" y2="165.068" gradientUnits="userSpaceOnUse">
<stop stop-color="#ECC4D7"/>
<stop offset="0.42" stop-color="#EFD4D1"/>
<stop offset="1" stop-color="#F2EAC9"/>
</linearGradient>
<linearGradient id="paint3_linear_5_4" x1="498.688" y1="149.586" x2="461.131" y2="212.418" gradientUnits="userSpaceOnUse">
<stop stop-color="#ECC4D7"/>
<stop offset="0.42" stop-color="#EFD4D1"/>
<stop offset="1" stop-color="#F2EAC9"/>
</linearGradient>
<linearGradient id="paint4_linear_5_4" x1="465.363" y1="135.488" x2="510.663" y2="135.377" gradientUnits="userSpaceOnUse">
<stop stop-color="#ECC4D7"/>
<stop offset="0.42" stop-color="#EFD4D1"/>
<stop offset="1" stop-color="#F2EAC9"/>
</linearGradient>
<linearGradient id="paint5_linear_5_4" x1="384.947" y1="280.445" x2="408.455" y2="271.217" gradientUnits="userSpaceOnUse">
<stop stop-color="#ECC4D7"/>
<stop offset="0.42" stop-color="#EFD4D1"/>
<stop offset="1" stop-color="#F2EAC9"/>
</linearGradient>
<linearGradient id="paint6_linear_5_4" x1="394.37" y1="249.4" x2="242.39" y2="275.83" gradientUnits="userSpaceOnUse">
<stop offset="0.17" stop-color="#00272E"/>
<stop offset="1" stop-color="#69B9EB" stop-opacity="0"/>
</linearGradient>
<linearGradient id="paint7_linear_5_4" x1="313.437" y1="132.899" x2="325.836" y2="136.719" gradientUnits="userSpaceOnUse">
<stop stop-color="#ECC4D7"/>
<stop offset="0.42" stop-color="#EFD4D1"/>
<stop offset="1" stop-color="#F2EAC9"/>
</linearGradient>
<linearGradient id="paint8_linear_5_4" x1="413.415" y1="263.045" x2="390.031" y2="318.572" gradientUnits="userSpaceOnUse">
<stop stop-color="#ECC4D7"/>
<stop offset="0.42" stop-color="#EFD4D1"/>
<stop offset="1" stop-color="#F2EAC9"/>
</linearGradient>
<linearGradient id="paint9_linear_5_4" x1="402.642" y1="278.181" x2="397.27" y2="297.884" gradientUnits="userSpaceOnUse">
<stop stop-color="#ECC4D7"/>
<stop offset="0.42" stop-color="#EFD4D1"/>
<stop offset="1" stop-color="#F2EAC9"/>
</linearGradient>
<linearGradient id="paint10_linear_5_4" x1="511.863" y1="311.115" x2="540.143" y2="311.045" gradientUnits="userSpaceOnUse">
<stop stop-color="#ECC4D7"/>
<stop offset="0.42" stop-color="#EFD4D1"/>
<stop offset="1" stop-color="#F2EAC9"/>
</linearGradient>
<linearGradient id="paint11_linear_5_4" x1="288.45" y1="480.67" x2="247.7" y2="498.66" gradientUnits="userSpaceOnUse">
<stop stop-color="#68E1FD"/>
<stop offset="0.01" stop-color="#67DDF9"/>
<stop offset="0.12" stop-color="#5CB3CE"/>
<stop offset="0.24" stop-color="#538EA9"/>
<stop offset="0.37" stop-color="#4C718B"/>
<stop offset="0.5" stop-color="#465A73"/>
<stop offset="0.63" stop-color="#424A63"/>
<stop offset="0.79" stop-color="#404059"/>
<stop offset="0.99" stop-color="#3F3D56"/>
</linearGradient>
<linearGradient id="paint12_linear_5_4" x1="353.09" y1="479.87" x2="317.48" y2="503.73" gradientUnits="userSpaceOnUse">
<stop stop-color="#68E1FD"/>
<stop offset="0.01" stop-color="#67DDF9"/>
<stop offset="0.12" stop-color="#5CB3CE"/>
<stop offset="0.24" stop-color="#538EA9"/>
<stop offset="0.37" stop-color="#4C718B"/>
<stop offset="0.5" stop-color="#465A73"/>
<stop offset="0.63" stop-color="#424A63"/>
<stop offset="0.79" stop-color="#404059"/>
<stop offset="0.99" stop-color="#3F3D56"/>
</linearGradient>
<linearGradient id="paint13_linear_5_4" x1="518.25" y1="474.72" x2="546.88" y2="496.38" gradientUnits="userSpaceOnUse">
<stop stop-color="#68E1FD"/>
<stop offset="0.01" stop-color="#67DDF9"/>
<stop offset="0.12" stop-color="#5CB3CE"/>
<stop offset="0.24" stop-color="#538EA9"/>
<stop offset="0.37" stop-color="#4C718B"/>
<stop offset="0.5" stop-color="#465A73"/>
<stop offset="0.63" stop-color="#424A63"/>
<stop offset="0.79" stop-color="#404059"/>
<stop offset="0.99" stop-color="#3F3D56"/>
</linearGradient>
<linearGradient id="paint14_linear_5_4" x1="430.53" y1="473.33" x2="486.33" y2="501.6" gradientUnits="userSpaceOnUse">
<stop stop-color="#68E1FD"/>
<stop offset="0.01" stop-color="#67DDF9"/>
<stop offset="0.12" stop-color="#5CB3CE"/>
<stop offset="0.24" stop-color="#538EA9"/>
<stop offset="0.37" stop-color="#4C718B"/>
<stop offset="0.5" stop-color="#465A73"/>
<stop offset="0.63" stop-color="#424A63"/>
<stop offset="0.79" stop-color="#404059"/>
<stop offset="0.99" stop-color="#3F3D56"/>
</linearGradient>
<linearGradient id="paint15_linear_5_4" x1="460.99" y1="216.75" x2="536.66" y2="170" gradientUnits="userSpaceOnUse">
<stop offset="0.17" stop-color="#00272E"/>
<stop offset="1" stop-color="#2563EB"/>
</linearGradient>
<linearGradient id="paint16_linear_5_4" x1="511.24" y1="196.93" x2="454.75" y2="201.25" gradientUnits="userSpaceOnUse">
<stop offset="0.17" stop-color="#00272E"/>
<stop offset="1" stop-color="#69B9EB" stop-opacity="0"/>
</linearGradient>
<linearGradient id="paint17_linear_5_4" x1="325.22" y1="118.17" x2="279.41" y2="203.65" gradientUnits="userSpaceOnUse">
<stop offset="0.17" stop-color="#00272E"/>
<stop offset="1" stop-color="#2563EB"/>
</linearGradient>
<linearGradient id="paint18_linear_5_4" x1="107.27" y1="231.23" x2="132.64" y2="231.23" gradientUnits="userSpaceOnUse">
<stop offset="0.17" stop-color="#00272E"/>
<stop offset="1" stop-color="#69B9EB" stop-opacity="0"/>
</linearGradient>
<linearGradient id="paint19_linear_5_4" x1="130.49" y1="234.43" x2="160.15" y2="234.43" gradientUnits="userSpaceOnUse">
<stop offset="0.17" stop-color="#00272E"/>
<stop offset="1" stop-color="#69B9EB" stop-opacity="0"/>
</linearGradient>
<linearGradient id="paint20_linear_5_4" x1="146.91" y1="236.14" x2="110.06" y2="330.24" gradientUnits="userSpaceOnUse">
<stop stop-color="white" stop-opacity="0"/>
<stop offset="1" stop-color="#1A7FC1"/>
</linearGradient>
<linearGradient id="paint21_linear_5_4" x1="-100.9" y1="289.28" x2="402.93" y2="490.81" gradientUnits="userSpaceOnUse">
<stop offset="0.17" stop-color="#00272E"/>
<stop offset="1" stop-color="#69B9EB" stop-opacity="0"/>
</linearGradient>
<linearGradient id="paint22_linear_5_4" x1="-121.91" y1="341.8" x2="381.92" y2="543.33" gradientUnits="userSpaceOnUse">
<stop offset="0.17" stop-color="#00272E"/>
<stop offset="1" stop-color="#69B9EB" stop-opacity="0"/>
</linearGradient>
<linearGradient id="paint23_linear_5_4" x1="266.13" y1="296.13" x2="266.53" y2="296.13" gradientUnits="userSpaceOnUse">
<stop stop-color="#68E1FD"/>
<stop offset="1" stop-color="#69B9EB"/>
</linearGradient>
<clipPath id="clip0_5_4">
<rect width="823.83" height="516.18" fill="white"/>
</clipPath>
</defs>
</svg>
